HIERARCHY
ROOT Hips
{
	OFFSET 0.00000 0.00000 0.00000
	CHANNELS 6 Xposition Yposition Zposition Yrotation Zrotation Xrotation 
	JOINT Lumbar
	{
		OFFSET 0 0 0
		CHANNELS 3 Zrotation Xrotation Yrotation
		JOINT Neck
		{
			OFFSET 0.00 0.2701 0.00
			CHANNELS 3 Zrotation Xrotation Yrotation
			End Site
			{
				OFFSET 0.00 0.1379 0.00
			}
		}
		JOINT RightShoulder
		{
			OFFSET 0.0119 0.2289 0.1181
			CHANNELS 3 Zrotation Xrotation Yrotation
			JOINT RightElbow
			{
				OFFSET 0.00 -0.1475 0.00
				CHANNELS 2 Zrotation Yrotation
				JOINT RightWrist
				{
					OFFSET 0.00 -0.1605 0.00
					CHANNELS 2 Zrotation Xrotation
					End Site
					{
						OFFSET 0.0040 -0.1068 0.0006
					}
				}
			}
		}
		JOINT LeftShoulder
		{
			OFFSET 0.0119 0.2289 -0.1181
			CHANNELS 3 Zrotation Xrotation Yrotation
			JOINT LeftElbow
			{
				OFFSET 0.00 -0.1475 0.00
				CHANNELS 2 Zrotation Yrotation
				JOINT LeftWrist
				{
					OFFSET 0.00 -0.1605 0.00
					CHANNELS 2 Zrotation Xrotation
					End Site
					{
						OFFSET 0.0040 -0.1068 -0.0006
					}
				}
			}
		}
	}
	JOINT RightHip
	{
		OFFSET 0.0316 -0.0424 0.0458
		CHANNELS 3 Zrotation Xrotation Yrotation
		JOINT RightKnee
		{
			OFFSET 0.00 -0.2438 0.00
			CHANNELS 1 Zrotation
			JOINT RightAnkle
			{
				OFFSET 0.00 -0.2449 0.00
				CHANNELS 3 Zrotation Xrotation Yrotation
				End Site
				{
					OFFSET 0.1237 -0.0542 0.0051
				}
			}
		}
	}
	JOINT LeftHip
	{
		OFFSET 0.0316 -0.0424 -0.0458
		CHANNELS 3 Zrotation Xrotation Yrotation
		JOINT LeftKnee
		{
			OFFSET 0.00 -0.2438 0.00
			CHANNELS 1 Zrotation
			JOINT LeftAnkle
			{
				OFFSET 0.00 -0.2449 0.00
				CHANNELS 3 Zrotation Xrotation Yrotation
				End Site
				{
					OFFSET 0.1237 -0.0542 -0.0051
				}
			}
		}
	}
}
MOTION
Frames: 31
Frame Time: 0.02
0 0.57926 1e-05 181.54946 0 -4.51322 5.13987 2.57987 -5.80523 -37.99288 5.66223 7.60393 30.82639 -24.7079 10.13244 9.95617 86.81489 -0.68575 -2.26301 34.52292 5.51636 -9.84236 9.18827 -80.822 -3.32461 3.46347 0.71556 2.05168 -3.61583 -12.78072 -10.21978 -1.84907 -11.19077 -7.19223 5.49274 13.88769 -0.7586 -6.50221 2.11909 5.35847
-0.00144 0.57917 -0.00439 181.76178 0 -4.59198 5.2909 2.63733 -5.93601 -37.85037 5.6299 7.49249 30.77734 -24.50046 10.1218 10.17332 86.53075 -0.86004 -2.48353 34.69036 5.81302 -10.23608 9.63943 -80.93614 -3.47864 3.77124 0.36182 2.50015 -3.8906 -12.40592 -10.24909 -1.84942 -11.03414 -7.20675 5.98689 13.82825 -0.874 -6.50748 2.09638 5.27798
-0.00287 0.57908 -0.00877 181.97355 0 -4.67019 5.44039 2.69449 -6.0666 -37.70999 5.59884 7.3831 30.73224 -24.29587 10.11322 10.38961 86.247 -1.03339 -2.70268 34.8583 6.10611 -10.62638 10.08779 -81.04994 -3.6316 4.07731 0.00974 2.9472 -4.16402 -12.03268 -10.27825 -1.84976 -10.87803 -7.21833 6.4798 13.76736 -0.99393 -6.51137 2.07429 5.1985
-0.00429 0.57899 -0.01315 182.18277 0 -4.74693 5.58659 2.7508 -6.1956 -37.57371 5.56969 7.2771 30.69732 -24.09558 10.10942 10.60451 85.9621 -1.20412 -2.9189 35.02714 6.3936 -11.00764 10.53058 -81.16383 -3.78292 4.38015 -0.3396 3.39239 -4.43455 -11.66119 -10.30777 -1.85014 -10.72128 -7.22538 6.97145 13.7121 -1.12103 -6.51364 2.05302 5.11615
-0.00578 0.57891 -0.01755 182.40261 0 -4.83145 5.75184 2.81136 -6.33046 -37.41208 5.52698 7.14859 30.60229 -23.86632 10.07618 10.82668 85.68333 -1.38802 -3.15115 35.18795 6.71773 -11.43779 11.00437 -81.27764 -3.94427 4.70075 -0.704 3.84673 -4.72029 -11.27943 -10.33622 -1.8504 -10.56639 -7.26498 7.46848 13.64146 -1.19566 -6.52912 2.02567 5.04168
-0.00711 0.57881 -0.02191 182.6017 0 -4.8994 5.87553 2.86303 -6.45454 -37.30669 5.51536 7.07091 30.63866 -23.70278 10.10804 11.03333 85.39188 -1.54436 -3.3489 35.36779 6.95929 -11.76343 11.41111 -81.39125 -4.08333 4.983 -1.0358 4.28175 -4.97362 -10.92044 -10.36631 -1.85088 -10.40877 -7.2299 7.9545 13.59363 -1.39102 -6.51351 2.01236 4.95557
-0.00798 0.57869 -0.02627 182.73015 0 -4.92196 5.8931 2.88928 -6.53657 -37.33883 5.57268 7.11127 31.01736 -23.68814 10.30496 11.20065 85.05579 -1.62227 -3.45644 35.58797 7.01052 -11.80446 11.64544 -81.5097 -4.17013 5.16732 -1.28697 4.66951 -5.13902 -10.61078 -10.4073 -1.852 -10.23158 -7.02902 8.41502 13.69264 -1.85393 -6.43473 2.02897 4.78993
-0.00867 0.57856 -0.03059 182.83988 0 -4.9277 5.86721 2.90679 -6.61002 -37.43116 5.66464 7.20753 31.53295 -23.74628 10.57135 11.35193 84.70817 -1.67287 -3.52834 35.82947 6.97109 -11.73934 11.80984 -81.62711 -4.23285 5.31156 -1.50386 5.03699 -5.27046 -10.32604 -10.44899 -1.85314 -10.0546 -6.74528 8.86374 13.7998 -2.45067 -6.32025 2.06115 4.61966
-0.00942 0.57844 -0.03488 182.96746 0 -4.94095 5.85548 2.92883 -6.69559 -37.50747 5.75171 7.29226 31.99974 -23.79171 10.81476 11.50833 84.37186 -1.73759 -3.61339 36.06997 6.94918 -11.72014 11.99837 -81.74159 -4.30058 5.4693 -1.73052 5.41042 -5.41806 -10.03863 -10.48603 -1.85452 -9.88396 -6.47263 9.31565 13.84824 -3.03051 -6.20729 2.09228 4.48391
-0.01028 0.57832 -0.03935 183.05703 0 -4.95493 5.86701 2.9483 -6.74671 -37.53554 5.79259 7.31665 32.40974 -23.74929 11.01854 11.67348 84.01057 -1.79511 -3.71126 36.27539 7.0289 -11.71047 12.21971 -81.87032 -4.39315 5.6473 -1.9813 5.79799 -5.56724 -9.7157 -10.5406 -1.85568 -9.68236 -6.31135 9.77789 14.12713 -3.42773 -6.15658 2.09893 4.21713
-0.01086 0.57818 -0.04344 183.21952 0 -4.9632 5.82019 2.97132 -6.86721 -37.67888 5.9384 7.48222 32.9707 -23.90952 11.32555 11.81709 83.69784 -1.86109 -3.77397 36.55689 6.8733 -11.65605 12.3554 -81.96923 -4.42849 5.77308 -2.17417 6.15074 -5.69921 -9.47148 -10.55976 -1.85628 -9.55006 -5.89942 10.21424 13.93017 -4.2336 -5.96751 2.15907 4.21494
-0.01072 0.57794 -0.04663 183.60248 0 -4.9615 5.61934 3.00397 -7.18384 -38.1209 6.36053 8.00409 33.91333 -24.58908 11.86376 11.90098 83.5285 -1.95776 -3.74855 37.05972 6.10983 -11.50231 12.27776 -81.98511 -4.30973 5.76885 -2.21152 6.4168 -5.84508 -9.44859 -10.47273 -1.8646 -9.56457 -4.80846 10.59599 12.39896 -6.16172 -5.40811 2.37316 5.00633
-0.0103 0.57767 -0.04943 184.056 0 -4.95436 5.36194 3.04104 -7.56982 -38.67719 6.8874 8.66901 35.00305 -25.47284 12.50949 11.96455 83.40752 -2.06377 -3.6891 37.63442 5.1102 -11.30815 12.11524 -81.9712 -4.13454 5.71255 -2.19248 6.64738 -5.96697 -9.50225 -10.35143 -1.87105 -9.65454 -3.47062 10.9496 10.39262 -8.48888 -4.71099 2.63848 6.05258
-0.01001 0.57743 -0.05235 184.46863 0 -4.94859 5.13271 3.07746 -7.92285 -39.18514 7.37028 9.28253 36.02709 -26.27961 13.13125 12.04018 83.25973 -2.16508 -3.64492 38.16654 4.20425 -11.13279 11.98754 -81.97153 -3.98652 5.67734 -2.20192 6.89166 -6.06243 -9.51414 -10.25137 -1.87171 -9.74241 -2.24905 11.30676 8.61503 -10.61924 -4.0739 2.87394 6.94159
-0.00969 0.57715 -0.0555 184.92097 0 -4.94675 4.89145 3.10735 -8.28293 -39.68241 7.8415 9.84394 37.05274 -27.02799 13.65384 12.10329 83.13065 -2.26735 -3.5997 38.74493 3.34782 -10.94926 11.87308 -81.96879 -3.83135 5.65196 -2.19827 7.14672 -6.30583 -9.55602 -10.12795 -1.8986 -9.70494 -1.00264 11.702 6.78104 -12.83031 -3.44288 3.13842 8.00536
-0.00938 0.57693 -0.05808 185.30371 0 -4.93584 4.6625 3.15259 -8.64328 -40.22527 8.35846 10.54286 38.106 -27.93823 14.40319 12.18791 82.97587 -2.3702 -3.54979 39.23915 2.33951 -10.77785 11.71201 -81.96546 -3.67781 5.5938 -2.20876 7.36959 -6.24643 -9.55375 -10.04436 -1.87266 -9.93321 0.24361 12.01203 4.95475 -14.95278 -2.77136 3.35356 8.76564
-0.00912 0.57689 -0.05924 185.51018 0 -4.89967 4.48062 3.23426 -9.00133 -40.89193 9.00154 11.6229 39.21737 -29.30779 15.79019 12.33669 82.72436 -2.47243 -3.48895 39.52269 0.91721 -10.62232 11.44119 -81.96702 -3.54429 5.46178 -2.27373 7.52593 -5.2634 -9.40715 -10.08493 -1.68157 -10.99287 1.4801 12.08785 3.23984 -16.84908 -1.98423 3.42722 8.62669
-0.0089 0.57691 -0.05983 185.63801 0 -4.85501 4.31343 3.33218 -9.35473 -41.5955 9.68217 12.82919 40.34728 -30.82109 17.39416 12.50803 82.44801 -2.57501 -3.42602 39.71183 -0.6395 -10.48636 11.12694 -81.96908 -3.41416 5.29799 -2.35463 7.6487 -3.99223 -9.21428 -10.16574 -1.44075 -12.2974 2.69813 12.0798 1.5546 -18.62097 -1.16836 3.44816 8.17384
-0.00868 0.5769 -0.06064 185.78024 0 -4.81519 4.14021 3.42591 -9.70114 -42.2648 10.32871 13.95367 41.45653 -32.22747 18.87381 12.66916 82.19218 -2.67761 -3.36819 39.91795 -2.09991 -10.3596 10.83427 -81.97155 -3.28148 5.14642 -2.42752 7.77797 -2.91671 -9.04461 -10.22424 -1.23601 -13.41152 3.89046 12.1143 -0.128 -20.37184 -0.39026 3.48818 7.86331
-0.00837 0.57689 -0.06159 186.01519 0 -4.77064 3.96225 3.50633 -10.0883 -43.0116 11.05064 15.18683 42.62329 -33.81704 20.46633 12.82905 81.89889 -2.77996 -3.29115 40.23499 -3.71749 -10.15368 10.53136 -81.9707 -3.15106 5.00251 -2.5022 7.94287 -1.57471 -8.86753 -10.29827 -0.97555 -14.85529 5.23463 12.13006 -1.89809 -22.46048 0.4974 3.55 7.56096
-0.00826 0.57689 -0.06212 186.03718 0 -4.73447 3.79839 3.61825 -10.3887 -43.60475 11.62331 16.22109 43.67191 -35.05599 21.87324 12.99758 81.67731 -2.88254 -3.2547 40.29894 -5.0363 -10.11945 10.23991 -81.97676 -3.01748 4.83561 -2.57699 8.02617 -0.71015 -8.69505 -10.35026 -0.81779 -15.67844 6.25588 12.16409 -3.46914 -23.81544 1.16139 3.55396 7.16635
-0.0087 0.57691 -0.06171 185.49147 0 -4.71937 3.67028 3.81312 -10.44885 -43.75959 11.77168 16.67962 44.39522 -35.29461 22.71864 13.1807 81.65768 -2.98765 -3.32583 39.67581 -5.49734 -10.53941 9.99726 -82.00634 -2.87451 4.61484 -2.65407 7.89092 -1.31632 -8.53673 -10.32906 -0.96946 -14.65122 6.37929 12.27913 -4.524 -23.13252 1.20416 3.40437 6.57004
-0.00936 0.57694 -0.06088 184.73326 0 -4.71371 3.55607 4.03893 -10.42165 -43.75892 11.76836 16.93193 44.99685 -35.17367 23.36804 13.37241 81.71122 -3.09242 -3.43902 38.80326 -5.65159 -11.13333 9.76702 -82.04229 -2.72848 4.37192 -2.72971 7.67493 -2.3977 -8.38641 -10.2849 -1.22377 -13.00477 6.17849 12.41349 -5.37089 -21.7214 1.01965 3.19938 5.89511
-0.00992 0.57696 -0.06018 184.07164 0 -4.70659 3.43548 4.25088 -10.43553 -43.83206 11.83613 17.27523 45.65032 -35.21453 24.10444 13.56291 81.73245 -3.1962 -3.53641 38.0516 -5.94534 -11.65924 9.52707 -82.07234 -2.58405 4.13823 -2.8027 7.49734 -3.20804 -8.23815 -10.25304 -1.42201 -11.69188 6.13266 12.53287 -6.29527 -20.66942 0.93601 3.02381 5.2701
-0.01046 0.577 -0.0597 183.40857 0 -4.68762 3.31555 4.46342 -10.44423 -43.89312 11.89701 17.63515 46.32065 -35.26791 24.85888 13.74334 81.74892 -3.30541 -3.61965 37.2637 -6.24467 -12.14402 9.3021 -82.11455 -2.43887 3.90705 -2.89093 7.31229 -4.24112 -8.06305 -10.21474 -1.6579 -10.16796 6.05666 12.67645 -7.29665 -19.49434 0.86302 2.82836 4.57333
-0.0111 0.577 -0.05868 182.6974 0 -4.69517 3.19749 4.68076 -10.44204 -43.94215 11.9347 17.90907 46.92483 -35.20716 25.52427 13.94583 81.79292 -3.40248 -3.74246 36.49472 -6.45641 -12.74941 9.05024 -82.13357 -2.29442 3.66564 -2.94591 7.12286 -4.92653 -7.94785 -10.18384 -1.84089 -8.9327 5.96354 12.77408 -8.08124 -18.40423 0.71429 2.66201 4.01274
-0.0119 0.57691 -0.0563 181.91974 0 -4.77769 3.07995 4.9125 -10.43916 -43.99343 11.95372 18.00133 47.39108 -34.92471 26.00636 14.21261 81.89561 -3.4729 -3.96345 35.82767 -6.51117 -13.6958 8.71492 -82.0814 -2.15371 3.40346 -2.91681 6.951 -4.53937 -7.9847 -10.17898 -1.84861 -8.65031 5.92913 12.75046 -8.38076 -17.72658 0.40446 2.58818 3.83705
-0.0128 0.57678 -0.05338 181.09866 0 -4.88558 2.96386 5.14587 -10.4266 -44.03806 11.95284 18.01244 47.79155 -34.53814 26.40051 14.49993 82.02339 -3.53005 -4.22282 35.1913 -6.4856 -14.74668 8.35363 -82.00652 -2.01393 3.13187 -2.85225 6.77565 -3.78648 -8.08482 -10.18202 -1.80056 -8.67783 5.88375 12.67808 -8.45824 -17.15986 0.02739 2.54604 3.8044
-0.01367 0.57667 -0.05067 180.28852 0 -4.97956 2.84798 5.37328 -10.41361 -44.08746 11.95555 18.0566 48.21285 -34.19472 26.82578 14.77446 82.13954 -3.58855 -4.46534 34.54826 -6.48995 -15.71822 8.00832 -81.94595 -1.87269 2.86298 -2.79973 6.59576 -3.20027 -8.16254 -10.18144 -1.781 -8.55938 5.82598 12.62211 -8.59563 -16.54358 -0.31397 2.49057 3.71492
-0.01447 0.57655 -0.04811 179.50828 0 -5.08499 2.72937 5.62562 -10.4191 -44.12486 11.97632 18.11004 48.67028 -33.85595 27.28675 15.06489 82.25959 -3.66596 -4.70744 33.86396 -6.51244 -16.83589 7.64519 -81.86957 -1.73453 2.59856 -2.76677 6.43961 -2.62922 -8.20997 -10.18081 -1.7518 -8.44092 5.8303 12.59244 -8.89649 -15.89964 -0.68454 2.42864 3.58889
-0.01545 0.57645 -0.0451 178.6579 0 -5.17115 2.61604 5.82372 -10.3835 -44.18669 11.95634 18.12725 49.03581 -33.48806 27.64867 15.32574 82.37601 -3.7019 -4.95818 33.27838 -6.48088 -17.66476 7.3136 -81.81964 -1.5917 2.32463 -2.68168 6.23334 -1.93261 -8.34009 -10.18172 -1.72801 -8.40435 5.70685 12.49441 -8.8098 -15.34735 -1.00786 2.38836 3.57288
